<svg xmlns="http://www.w3.org/2000/svg" viewBox="0 0 512 512"><!--!Font Awesome Free 6.5.2 by @fontawesome - https://fontawesome.com License - https://fontawesome.com/license/free Copyright 2024 Fonticons, Inc.--><path d="M64 144a48 48 0 1 1 0-96 48 48 0 1 1 0 96zM224 0c-17.7 0-32 14.3-32 32V96H128V32c0-17.7-14.3-32-32-32S64 14.3 64 32V96H32c-17.7 0-32 14.3-32 32s14.3 32 32 32H64v32c0 17.7 14.3 32 32 32s32-14.3 32-32V192h64v32c0 17.7 14.3 32 32 32s32-14.3 32-32V192h64v32c0 17.7 14.3 32 32 32s32-14.3 32-32V192h32c17.7 0 32-14.3 32-32s-14.3-32-32-32H448V96h32c17.7 0 32-14.3 32-32s-14.3-32-32-32H448V0H224zM192 192V96h64v96H192zm128 0V96h64v96H320zM0 320H512V480c0 17.7-14.3 32-32 32H32c-17.7 0-32-14.3-32-32V320z"/></svg>